<svg version="1.1" xmlns="http://www.w3.org/2000/svg" viewBox="0 0 798.2890625 546.859375">
  <!-- svg-source:excalidraw -->
  <defs>
    <style>
      @font-face {
        font-family: "Virgil";
        src: url("https://excalidraw.com/FG_Virgil.woff2");
      }
      @font-face {
        font-family: "Cascadia";
        src: url("https://excalidraw.com/Cascadia.woff2");
      }
    </style>
  </defs>
  <g transform="translate(567.3203125 301.13671875) rotate(0 110.484375 117.861328125)"><path d="M1.490642134770859 -1.3106598758602526 C72.27734003180375 -0.9144323999715793, 144.2244149413222 -2.3672483295561157, 219.34937915202997 -1.685850711156984 M-0.7115533817706065 -0.7786379739492657 C68.87074367696087 -1.4578061615818696, 139.32834208137695 -1.5239120482864348, 221.02063465136726 -0.5834344503849066 M220.7567104786204 1.0956480161722693 C221.75605504747168 83.0685974382944, 220.47866589373433 166.34996815991605, 221.82735064059975 234.51548048476536 M221.40316147719307 0.7110753527052892 C218.53500898200596 79.21701199719176, 219.16164943099858 157.75591024338726, 220.95027505589874 236.45685764781072 M220.94541587090387 237.35127755141784 C162.53765807817766 235.9926391319804, 105.70853379717866 234.77215895926838, -0.3856251104246571 236.51409794137732 M221.03986628394122 236.16439357693142 C144.82276564591982 234.89677105795042, 68.6458788695505 235.86871522491907, 0.10985675823427676 236.02548060177415 M1.328647157277436 235.84274575162488 C0.1057389650740479 151.86866488812583, -0.8160448002170995 68.7030758093205, -0.18780367717833094 1.1034680810373039 M0.35030023227031876 235.58385973305758 C-1.872764001454023 179.8971715139744, -2.361896813376618 123.9065849413643, 0.18922798045510472 0.4145572671099402" stroke="#000000" stroke-width="1" fill="none"></path></g><g transform="translate(648.671875 308.05078125) rotate(0 26 11.5)"><text x="26" y="18" font-family="Helvetica" font-size="20px" fill="#000000" text-anchor="middle" style="white-space: pre;">Neo4j</text></g><g transform="translate(498.2109375 10.50390625) rotate(0 141.892578125 78.32421875)"><path d="M-1.2796082096536046 0.5021547483319322 C106.85380001440798 -2.8510536071213934, 212.1602913073067 -0.38896587030973584, 283.3572559629618 1.2234980244829827 M0.47660999991697744 0.6514665142998762 C99.8864002596984 -0.12837572191588864, 199.68890750126346 0.6803583081134223, 284.3205032404181 -0.05222784131126168 M283.63560809753847 1.1611325237900019 C285.09838429510495 51.03971132514925, 284.9450766783943 100.48269175309541, 285.7375138606877 154.90266300179061 M283.97868353594106 -0.2443803446367383 C282.7965865872475 59.83400204560093, 283.39795152765237 120.78104727000608, 283.7279382692651 156.6792894406244 M284.180919250272 155.18060916074543 C219.06165821257966 156.47227583661981, 154.48856893091755 159.14924506846495, 0.5591581047562719 156.37730672125846 M284.213304698465 156.75944707690522 C219.1748591363708 154.94821451961698, 154.40258056225156 155.31401341993677, 0.7479049525754325 157.21135527809145 M0.6914198603481054 156.1765163633972 C-1.5480992942525333 103.00321106086555, -2.9774956255628053 52.35048414273331, -0.12478427030146122 0.5384882781654596 M0.14580500591546297 156.80187804531303 C1.4682501952164602 99.39693992369502, -0.18653606371946818 41.502693444838215, 0.015278016217052937 -0.5148791866376996" stroke="#000000" stroke-width="1" fill="none"></path></g><g transform="translate(536.80078125 25.1328125) rotate(0 101 11.5)"><text x="101" y="18" font-family="Helvetica" font-size="20px" fill="#000000" text-anchor="middle" style="white-space: pre;">GraphQL API (node.js)</text></g><g transform="translate(535.1640625 65.44140625) rotate(0 110.126953125 38.884765625)"><path d="M1.07546934634995 -0.003920435298475567 C87.06684344559773 2.074088726062916, 170.24170600238543 1.5357604361124157, 219.80855563764212 -1.5332037565006662 M-0.8626837754363623 -0.19875469803164877 C67.62038528574067 0.639147704542725, 135.56821205908798 1.0283848045659814, 219.728148557526 -0.4886834639926203 M221.37031627632686 -1.7716191802173853 C217.67451553832257 17.738543499956357, 218.78628396283352 38.94831212190256, 218.32641012407848 79.60403688810764 M219.49995193909862 -0.1285415245220065 C219.74079481179103 29.840169722758944, 221.52470905000553 58.023302242317726, 219.32303864788273 77.85950944293289 M219.09249374074727 76.64744523195559 C167.2369895121806 77.7450215681535, 118.50930928762928 78.10095867053833, 0.42085684518420957 78.48107204323422 M220.73720983663603 78.42026272198225 C159.57332965057168 78.43797364526799, 96.52196256853237 77.48116344029576, -0.42723574141195975 77.51475555328761 M1.4442519042640924 77.25320198200642 C0.4104469955458989 52.85358162483061, -1.293065494249786 25.117312326614766, 1.481846759095788 -1.7750916872173548 M-0.5412015514448285 77.42944145668297 C-0.010893955221072282 59.68034406629411, 0.7960477030373658 41.871803202089346, -0.2564544575288892 0.6868806229904294" stroke="#000000" stroke-width="1" fill="none"></path></g><g transform="translate(541.09375 77.45703125) rotate(0 78.5 18)"><text x="157" y="14" font-family="Helvetica" font-size="16px" fill="#000000" text-anchor="end" style="white-space: pre;">neo4j-graphql.js</text><text x="157" y="32" font-family="Helvetica" font-size="16px" fill="#000000" text-anchor="end" style="white-space: pre;">neo4j-javascript-driver</text></g><g><g transform="translate(609.87109375 130.6953125) rotate(0 2.775938297677783 85.78522345436735)"><path d="M0.5521553691476584 1.0918241266161204 C1.774428754672408 29.482968875144923, 5.067436736449599 142.80146557527286, 6.168978386744857 170.95101906098427 M-0.6171017913892864 0.6194278477504849 C0.5002696139737965 28.627088212457792, 3.721351060383022 140.8397961655135, 4.9282012636587025 169.27851056922228" stroke="#000000" stroke-width="1" fill="none"></path></g><g transform="translate(609.87109375 130.6953125) rotate(0 2.775938297677783 85.78522345436735)"><path d="M-4.486180835429031 140.53202835644342 C-2.4571575413493387 147.77973399615635, -1.7803805242383568 153.05704580060006, 3.076538529135287 167.66665238942952 M-5.707341888945002 141.86681408702142 C-1.1013655009939756 152.19291242088593, 3.315236098504635 162.8229889567299, 5.0412863594293595 170.00916851460934" stroke="#000000" stroke-width="1" fill="none"></path></g><g transform="translate(609.87109375 130.6953125) rotate(0 2.775938297677783 85.78522345436735)"><path d="M16.02263236336942 139.81887790763898 C13.893088273923384 147.3056808450546, 10.407707488758584 152.7277228528463, 3.076538529135287 167.66665238942952 M14.80147130985345 141.15366363821698 C11.206266821746185 151.63462411445084, 7.425697568211634 162.54973986812288, 5.0412863594293595 170.00916851460934" stroke="#000000" stroke-width="1" fill="none"></path></g></g><g><g transform="translate(760.14453125 297.66015625) rotate(0 -6.543893807753875 -72.5874472144991)"><path d="M-0.08426340781152253 0.5210415299981832 C-2.1472714658826595 -23.70408066349725, -11.13155428133905 -121.47246972558399, -13.00352420769632 -145.69593595899642 M-1.5876404262520374 -0.2510156120918692 C-3.214317362997681 -24.226580302721512, -9.042080944869667 -119.67504501204317, -10.713830036614091 -144.06860364874825" stroke="#000000" stroke-width="1" fill="none"></path></g><g transform="translate(760.14453125 297.66015625) rotate(0 -6.543893807753875 -72.5874472144991)"><path d="M2.2053540576225465 -117.93587732981773 C-1.2857089944021851 -121.94192075676006, -2.8125205650363068 -130.60348266838025, -10.509754094798119 -145.118816249948 M0.8441693423291987 -115.6832692550111 C-2.945789169535198 -127.26985140689315, -7.840963979153437 -135.71206827647057, -10.829861285667867 -145.0130267235823" stroke="#000000" stroke-width="1" fill="none"></path></g><g transform="translate(760.14453125 297.66015625) rotate(0 -6.543893807753875 -72.5874472144991)"><path d="M-18.273448572233537 -116.61730035700229 C-16.684494087441205 -120.93580858955309, -13.13508125842848 -129.9242154209275, -10.509754094798119 -145.118816249948 M-19.634633287526885 -114.36469228219566 C-16.059319645190484 -126.26979565812405, -13.594896614606025 -135.1858779394969, -10.829861285667867 -145.0130267235823" stroke="#000000" stroke-width="1" fill="none"></path></g></g><g transform="translate(10 10) rotate(0 122.3515625 88.83984375)"><path d="M0.072322609295209 1.0278227640345998 C90.94283802455747 0.9184440439369481, 181.3106062571906 2.6300218206750694, 245.6043285123129 0.10353598017692854 M0.3977796741021494 -0.693731952641944 C55.604404159531526 0.4333134450595338, 110.3467853118756 -0.24360545639707082, 243.89162632248107 -0.339468378866731 M243.83565427921712 -1.679162910208106 C245.5462987930116 67.63953831006293, 243.57293426101774 133.79449174285838, 244.61410804651678 176.7423259112984 M244.42914319504052 0.6242928011342883 C243.7342901266287 58.816205454569, 243.91246208912833 118.15589471170244, 244.62170961964875 177.67786256503314 M243.5134909467783 178.6525488351 C172.2877608796466 178.66796028378357, 103.50553701403116 177.34342477946709, 1.5450909674345332 178.54804743237048 M243.885163248704 177.38613504142057 C177.04937380143136 177.52195298859075, 110.12463842280567 178.02948464019065, -0.2989950011396935 177.28412906085208 M0.20336331985890865 178.2305004093796 C-1.4468656261100112 111.46952570349458, -0.24734426332848658 43.24316746794648, -0.8393689785152674 -1.1799619104713202 M0.8487022565677762 177.3863142831251 C0.9114086687690723 140.71057240776935, -0.20941724775962944 105.26604219470609, 0.15794691909104586 0.25573144387453794" stroke="#000000" stroke-width="1" fill="none"></path></g><g transform="translate(35.24609375 24.1484375) rotate(0 95.5 11.5)"><text x="191" y="18" font-family="Helvetica" font-size="20px" fill="#000000" text-anchor="end" style="white-space: pre;">Web frontend (React)</text></g><g transform="translate(140.234375 76.59375) rotate(0 49.232421875 26.677734375)"><path d="M1.4141652677208185 -0.8283618483692408 C19.026829447700955 -0.5475701724131433, 40.473487539424255 -1.2115055357058373, 100.35118562914434 -0.39115182496607304 M0.39380655717104673 -0.56367879640311 C23.850555110473586 0.3037599521786979, 46.03482269911548 -0.6756818395941445, 97.48546321224424 0.32206199038773775 M98.3492682669312 1.0558567848056555 C97.27413425550358 18.847540050422324, 97.75859669551747 33.697654941405204, 98.24961603619161 52.098495503887534 M98.11038811039182 0.07182047236710787 C99.20784904585955 18.036082602120224, 97.48957460151789 34.9362320686043, 98.09194783400747 53.29670787323266 M99.06470001675191 53.017321130260825 C74.59595122957947 54.95099265103916, 47.811904361962675 51.281964666896855, -0.01248173974454403 54.849409541115165 M97.64491991233083 52.81190062034875 C78.11627159630191 54.22925243572052, 59.478655499206084 54.424567647731855, 0.6171822650358081 53.36058429349214 M-0.4804940726608038 51.42608734034002 C-1.1038691410541288 34.06354588048671, 1.839116095590616 9.922399913187107, -1.3022341635078192 -0.1453066859394312 M0.3084066016599536 52.450537477619946 C-0.30715662834267277 31.674030723152462, 0.072608554390863 10.241187184322186, 0.7891633315011859 -0.2968251062557101" stroke="#000000" stroke-width="1" fill="none"></path></g><g transform="translate(142.890625 94.529296875) rotate(0 45 9)"><text x="90" y="14" font-family="Helvetica" font-size="16px" fill="#000000" text-anchor="end" style="white-space: pre;">Apollo Client</text></g><g transform="translate(18.74609375 68.79296875) rotate(0 51.2421875 40.240234375)"><path d="M-1.1160444524139166 -0.5817624721676111 C30.863662813774138 -1.3987960961025965, 58.625423073736606 1.095221802933811, 103.6078888271004 1.1359479632228613 M-0.18618564773350954 0.6325982557609677 C37.78334647900629 0.5568933344965626, 75.31447356881982 -0.18159405816739305, 103.00803200434893 -0.5527430726215243 M104.14556802250445 -0.5516106877475977 C104.40813662823315 29.419751118964996, 104.59722515162106 57.39504015651255, 103.63440341688693 81.50218029879034 M101.51855413150042 0.8608566569164395 C102.72870889378977 20.76927621081959, 103.27056342436266 40.903042329969324, 101.68382109235972 80.94279304612428 M103.97297067381442 80.48223944567144 C64.43864420477038 79.20756949086048, 22.040984987313266 78.55794496435978, 0.5690543744713068 81.30417885445058 M102.05622829031199 81.41064540017396 C65.58110067556407 80.60703718248216, 26.67287808248365 80.58426138344613, -0.30138244200497866 80.44861072767526 M1.7802870366722345 80.71601595543325 C-2.3595682920215406 55.11344974150088, -0.7355165423152722 28.11136837559097, 1.3513558600097895 -0.7012814674526453 M0.6821774048730731 79.86597937811166 C-0.6279634439343135 55.51282240986802, -1.088594188629977 28.482241010777216, -0.8924333350732923 -0.6495173228904605" stroke="#000000" stroke-width="1" fill="none"></path></g><g transform="translate(31.48828125 100.033203125) rotate(0 38.5 9)"><text x="77" y="14" font-family="Helvetica" font-size="16px" fill="#000000" text-anchor="end" style="white-space: pre;">Material UI</text></g><g><g transform="translate(227.08203125 85.41796875) rotate(0 133.5872235697415 -1.8720025093760455)"><path d="M-1.0208318945020436 0.22362049184739585 C43.47620885012051 0.007091666882236725, 221.24454685884217 -1.6301393294086062, 265.91132446564734 -2.0785937372595074 M0.6440926315449178 -0.7045826952718199 C45.615484259532145 -1.2196206238927942, 223.9114439970317 -3.8983817828757066, 268.195279033985 -3.967625510599464" stroke="#000000" stroke-width="1" fill="none"></path></g><g transform="translate(227.08203125 85.41796875) rotate(0 133.5872235697415 -1.8720025093760455)"><path d="M240.47353089444232 5.195143264249 C246.83166771308115 4.997513624658659, 252.1052397593584 2.3245792612691014, 266.8594885879569 -3.9082457336597143 M239.69943658199054 6.888586904384229 C247.16942076600068 3.75539453545243, 252.8632583827287 2.7070568040586274, 268.0485384884663 -3.280498243588954" stroke="#000000" stroke-width="1" fill="none"></path></g><g transform="translate(227.08203125 85.41796875) rotate(0 133.5872235697415 -1.8720025093760455)"><path d="M240.28329426137094 -15.325183546240083 C246.5482416412928 -11.196399181723717, 251.861907326201 -9.544537871194416, 266.8594885879569 -3.9082457336597143 M239.50919994891916 -13.631739906104855 C246.9439764158744 -12.329638609408395, 252.67891667995087 -8.944341542137327, 268.0485384884663 -3.280498243588954" stroke="#000000" stroke-width="1" fill="none"></path></g></g><g><g transform="translate(491.875 130.05859375) rotate(0 -132.1184658353124 -6.3948844855930815)"><path d="M0.20143855847418313 -1.1593438927084208 C-43.81451368294656 -3.3575676385313273, -219.82631343565882 -11.613743311539292, -263.7585761781782 -13.63616558946669 M-1.1519449276663365 0.84639661828056 C-45.310709400270134 -1.151038564648479, -220.68082693645732 -10.204940355625002, -264.43837022909895 -12.354797585215419" stroke="#000000" stroke-width="1" fill="none"></path></g><g transform="translate(491.875 130.05859375) rotate(0 -132.1184658353124 -6.3948844855930815)"><path d="M-237.69858856424122 -20.3301635932475 C-246.0192366660219 -16.77522399203886, -254.8558969847697 -16.236716586207244, -263.0051782050915 -10.742606722097843 M-235.30995966325878 -20.82448426990953 C-241.80336636555404 -18.884252436632405, -247.54727378236834 -17.101193063230607, -263.7286604851298 -11.955746450740843" stroke="#000000" stroke-width="1" fill="none"></path></g><g transform="translate(491.875 130.05859375) rotate(0 -132.1184658353124 -6.3948844855930815)"><path d="M-238.7327082164445 0.16497238899878042 C-246.63775289539885 -3.006170917602578, -255.1351239620894 -9.192010489814047, -263.0051782050915 -10.742606722097843 M-236.34407931546207 -0.3293482876632474 C-242.5275782076724 -2.5620947773018985, -248.06129286580062 -4.94482914215486, -263.7286604851298 -11.955746450740843" stroke="#000000" stroke-width="1" fill="none"></path></g></g><g transform="translate(590.79296875 339.52734375) rotate(0 43.193359375 20.580078125)"><path d="M39.37667117391839 -0.7552489589482683 C47.9087523269822 -1.3732325155318459, 59.44945390144353 0.9976674259553957, 66.82742119545296 3.451753175927582 C74.20538848946238 5.9058389258997686, 80.81837194167247 9.776662516762553, 83.64447493797492 13.969265540884848 C86.47057793427737 18.161868565007143, 86.97371437507744 24.387415013647534, 83.78403917326764 28.607371320661354 C80.59436397145785 32.827327627675174, 72.50368404375642 37.13124667483932, 64.50642372711621 39.28900338296778 C56.509163410476006 41.44676009109624, 44.658088211118034 42.3676720785237, 35.800477273426395 41.55391156943213 C26.942866335734756 40.740151060340565, 17.20399907892179 37.728303634856346, 11.360758100966365 34.4064403284184 C5.517517123010941 31.084577021980454, 1.1157446475773618 25.971666734962128, 0.7410314056938532 21.62273173080446 C0.36631816381034454 17.273796726646793, 4.104626748956098 11.699404836892317, 9.112478649665313 8.3128303034724 C14.120330550374529 4.926255770052482, 24.65142853613103 2.5537513569333896, 30.788142809949143 1.3032845302849587 C36.92485708376726 0.052817703636527824, 42.29563737451585 0.710558198844962, 45.932764292574 0.8100293435818138 C49.56989121063215 0.9095004883186656, 52.655566985455 1.7519706500517493, 52.610904318298026 1.9001113987060698 M49.419728662815906 -0.4419616459506486 C58.011914008869546 0.15967044336402303, 69.85182192655333 4.206582597169453, 76.23638016251427 7.726843788946841 C82.6209383984752 11.24710498072423, 87.38950104251371 16.672019751779995, 87.72707807858157 20.679605504713678 C88.06465511464943 24.68719125764736, 83.923085559421 28.24995567919221, 78.26184237892139 31.77235830654894 C72.60059919842178 35.29476093390567, 62.57520954783428 40.67543945242046, 53.759618995583864 41.81402126885406 C44.94402844333345 42.95260308528766, 33.555387359886424 40.41749218332796, 25.3682990654189 38.603849205150546 C17.181210770951374 36.79020622697313, 8.497096802349585 34.63694025176452, 4.637089228778727 30.932163399789587 C0.7770816552078688 27.227386547814653, 0.5664346308646746 20.53594252937541, 2.2082536239937482 16.37518809330094 C3.850072617122822 12.214433657226472, 7.8387863614496185 8.938068543383638, 14.488003187553169 5.96763678334276 C21.13722001365672 2.997205023301882, 36.294677727912095 -0.6202901516321395, 42.10355458061505 -1.4474024669443288 C47.912431433318 -2.274514782256518, 48.11441141571046 0.7478370702652288, 49.34126430377087 1.0049628914696243 C50.568117191831284 1.2620887126740197, 49.62548349721548 0.06329609536265757, 49.46467190897753 0.0953524602820437" stroke="#000000" stroke-width="1" fill="none"></path></g><g transform="translate(607.19140625 352.103515625) rotate(0 30 9)"><text x="60" y="14" font-family="Helvetica" font-size="16px" fill="#000000" text-anchor="end" style="white-space: pre;">Property</text></g><g transform="translate(685.916015625 390.853515625) rotate(0 43.193359375 20.580078125)"><path d="M30.588181746359588 0.9508625645822377 C38.39328337328935 -0.7681772140060925, 49.22791643898819 -0.8989620757063121, 57.70254379145287 0.4998172171066919 C66.17717114391755 1.898596509919696, 76.61448456399694 5.518146235579387, 81.43594586114764 9.343538321460262 C86.25740715829835 13.168930407341136, 88.1626841211547 19.154075887961255, 86.63131157435706 23.45216973239194 C85.09993902755942 27.750263576822626, 79.14381487300584 32.3245877718124, 72.24771058036177 35.132101388044376 C65.3516062877177 37.93961500427635, 54.320008239888516 40.07310426102149, 45.25468581849264 40.29725142978377 C36.18936339709676 40.52139859854605, 25.19863203051348 38.77271539400543, 17.855776051986517 36.476984400618065 C10.512920073459554 34.1812534072307, 3.53515908653477 30.34391966927035, 1.197549947330856 26.52286546945959 C-1.1400591918730583 22.70181126964883, 0.1472484269017369 17.399007673320153, 3.8301212167630325 13.550659201753508 C7.512994006624329 9.702310730186861, 17.832880185126413 5.745064191757066, 23.29478668649863 3.432774640059712 C28.756693187870844 1.1204850883623583, 33.17287557131246 0.24033130317674478, 36.60156022499632 -0.32307810843061446 C40.03024487868018 -0.8864875200379737, 43.819791691619656 -0.3886939139512086, 43.86689460860178 0.052318170415556864 M34.19721403212321 1.5993043285503141 C42.79229479594835 0.3419789333646792, 56.66719839266333 -0.7179384140909029, 64.65649497865232 1.192064028016791 C72.6457915646413 3.102066470124485, 78.77055394357826 9.089760954384321, 82.13299354805713 13.059318981196476 C85.495433152536 17.02887700800863, 87.27377421245015 21.185302187100117, 84.83113260552548 25.009412188889726 C82.38849099860082 28.833522190679336, 74.8303464071685 33.409054602364044, 67.4771439065091 36.00397899193413 C60.123941405849685 38.59890338150422, 49.391165124765784 40.696015285771956, 40.71191760156901 40.578958526310274 C32.03267007837224 40.46190176684859, 21.975824216977028 37.84868968172677, 15.401658767328456 35.30163843516404 C8.827493317679885 32.754587188601306, 3.1349721895874323 29.596029728040882, 1.2669249036775767 25.296651046933892 C-0.6011223822322787 20.997272365826902, -0.1800326581751035 13.3676855654865, 4.1933750518693245 9.50536634852209 C8.566782761913753 5.64304713155768, 22.61546413855786 3.5816262996397334, 27.507371163944146 2.1227357451474305 C32.39927818933043 0.6638451906551277, 32.077948922948224 1.15780979879131, 33.54481720418703 0.7520230215682737 C35.01168548542583 0.3462362443452373, 35.81199568930094 -0.3918256189635538, 36.30858085137695 -0.3119849181907881" stroke="#000000" stroke-width="1" fill="none"></path></g><g transform="translate(709.314453125 403.4296875) rotate(0 23 9)"><text x="46" y="14" font-family="Helvetica" font-size="16px" fill="#000000" text-anchor="end" style="white-space: pre;">Listing</text></g><g><g transform="translate(699.3359375 397.87109375) rotate(0 -16.990240753069486 -13.42513834686946)"><path d="M0.7512399729341268 -0.8952664967626334 C-4.883273115133245 -5.471853096907337, -29.06213339405755 -23.617627052093546, -34.731721479073165 -28.09939134083688 M-0.313497770614922 1.2491146470978856 C-5.5034190968548256 -3.1185367792968948, -26.969710185515385 -22.22692751309524, -32.549526187963785 -26.870494199804963" stroke="#000000" stroke-width="1" fill="none"></path></g><g transform="translate(699.3359375 397.87109375) rotate(0 -16.990240753069486 -13.42513834686946)"><path d="M-13.703659068977796 -20.813102551858663 C-17.68401466261152 -19.968811387728795, -21.69572886570799 -20.950136426198533, -30.81836284454912 -25.884744230546058 M-12.424811211599373 -19.5481790379917 C-17.246604106012104 -20.971428920708448, -22.45064383088387 -22.127332838005543, -32.055908082425596 -27.430921765863896" stroke="#000000" stroke-width="1" fill="none"></path></g><g transform="translate(699.3359375 397.87109375) rotate(0 -16.990240753069486 -13.42513834686946)"><path d="M-23.436482701392453 -9.550723453734893 C-25.18688611787227 -11.278270116990285, -27.028702128062356 -14.770502264827044, -30.81836284454912 -25.884744230546058 M-22.15763484401403 -8.285799939867932 C-24.41413272719698 -12.627012553350085, -27.11841052912117 -16.675526826549188, -32.055908082425596 -27.430921765863896" stroke="#000000" stroke-width="1" fill="none"></path></g></g><g transform="translate(603.181640625 456.673828125) rotate(0 43.193359375 20.580078125)"><path d="M28.834081850560825 0.9394994048874494 C36.75232780466063 -0.5674847751054601, 49.049653034493204 0.649562621539759, 57.51890046503112 2.2144201379655435 C65.98814789556904 3.7792776543913282, 74.90051531673988 6.8700042726322685, 79.64956643378835 10.328644503442156 C84.39861755083682 13.787284734252044, 87.1043341452784 18.60536412376896, 86.01320716732194 22.966261522824865 C84.92208018936547 27.32715892188077, 79.59552389793507 33.45033505735714, 73.1028045660496 36.49402889777758 C66.61008523416413 39.53772273819803, 56.086692863072074 41.06846061300581, 47.05689117600912 41.22842456534754 C38.02708948894616 41.388388517689265, 26.368461901128647 39.80031651655173, 18.923994443671845 37.45381261182793 C11.479526986215042 35.107308707104124, 5.17293856844352 31.232955797855684, 2.3900864312683012 27.149401137004713 C-0.3927657059069176 23.06584647615374, -1.0151066784557021 17.03341852842197, 2.2268816206205315 12.952484646722095 C5.468869919696765 8.87155076502222, 16.12662205725503 4.7771909593205635, 21.842016225725704 2.6637978468054655 C27.557410394196378 0.5504047342903671, 33.076147235589175 0.7225513338208109, 36.51924663144457 0.2721259716315032 C39.96234602729996 -0.17829939055780447, 42.479035735656765 -0.47914292483862236, 42.50061260085807 -0.03875432633038045 M60.222555692824145 0.9181804200674968 C68.60027587490374 2.468883476266287, 76.80208282444453 7.358814564091789, 81.07628626397465 11.063304604017326 C85.35048970350478 14.767794643942862, 87.45116643165002 18.98437705632658, 85.86777633000487 23.14512065962072 C84.28438622835972 27.30586426291486, 78.41065123343563 33.150455788863525, 71.57594565410378 36.02776622378216 C64.74124007477192 38.90507665870079, 53.89401696108436 40.42627093695026, 44.85954285401378 40.408983269132534 C35.8250687469432 40.39169560131481, 24.333440619650098 38.08622765662833, 17.369101011680296 35.924040216875824 C10.404761403710495 33.761852777123316, 5.155466729093497 31.41332732900885, 3.073505206194966 27.435858630617496 C0.9915436832964342 23.45838993222614, 1.5733405611709848 16.25748847909788, 4.877331874289105 12.059228026527702 C8.181323187407225 7.8609675739575255, 15.407923887742111 4.440261442699441, 22.897453084903688 2.2462959151964377 C30.386982282065265 0.05233038769343423, 43.60689801795942 -1.2078174099565218, 49.81450705725856 -1.1045651384903188 C56.022116096557696 -1.0013128670241158, 58.59559244368778 2.4940138124430025, 60.143107320698505 2.865809543993656 C61.69062219770923 3.2376052755443094, 59.305562380599845 1.1639972258042637, 59.09959631932293 1.1262092508136021" stroke="#000000" stroke-width="1" fill="none"></path></g><g transform="translate(632.580078125 469.25) rotate(0 17 9)"><text x="34" y="14" font-family="Helvetica" font-size="16px" fill="#000000" text-anchor="end" style="white-space: pre;">User</text></g><g><g transform="translate(686.3671875 469.12890625) rotate(0 12.799307563416676 -20.85421781228854)"><path d="M0.5854133304208518 0.8868727449327707 C4.478667550906539 -6.071853315457701, 19.940166133269667 -33.80659656487405, 23.960051899775863 -40.93396466933191 M-0.5663834004476667 0.3068769906833766 C3.6418021376058456 -7.0522187532112, 22.100105187408627 -35.77851422321051, 26.164998527280986 -42.59530836950987" stroke="#000000" stroke-width="1" fill="none"></path></g><g transform="translate(686.3671875 469.12890625) rotate(0 12.799307563416676 -20.85421781228854)"><path d="M22.627956712349427 -20.38799201611476 C24.20715879165637 -27.508279456373593, 24.390400579691057 -35.63155698597258, 28.14238919470459 -43.97040116462856 M21.458484568364096 -17.977854332030287 C21.395546543173342 -23.962850403893658, 24.11611686740263 -30.233863559339703, 26.523594916462898 -42.78900616943836" stroke="#000000" stroke-width="1" fill="none"></path></g><g transform="translate(686.3671875 469.12890625) rotate(0 12.799307563416676 -20.85421781228854)"><path d="M8.492096080669292 -29.18376466688672 C15.079456243083435 -33.29410671893508, 20.210869553633625 -38.338477849900634, 28.14238919470459 -43.97040116462856 M7.322623936683961 -26.773626982802245 C10.794633005764418 -30.682838009587616, 16.975440663242495 -34.800783750605405, 26.523594916462898 -42.78900616943836" stroke="#000000" stroke-width="1" fill="none"></path></g></g></svg>