<svg xmlns="http://www.w3.org/2000/svg" class="graphdiagram" viewBox="-1038.0980341731533 -711.1673886483854 2062.9383641565455 1489.5161129007074"><g class="layer relationships"><g class="related-pair"><g class="relationship" transform="translate(-693.8014526367188,-284.10595703125) rotate(41.00924144615828)"><path class="relationship" d="M 89.18226787956077 4 L 474.3111076422359 4 L 474.3111076422359 16 L 506.3111076422359 0 L 474.3111076422359 -16 L 474.3111076422359 -4 L 89.18226787956077 -4 Z" fill="rgb(0, 0, 0)" stroke="rgb(51, 51, 51)" stroke-width="0px"/><text class="type" text-anchor="middle" baseline-shift="30%" alignment-baseline="alphabetic" x="281.74668776089834" y="0" font-size="50px" font-family="&quot;Gill Sans&quot;, &quot;Gill Sans MT&quot;, Calibri, sans-serif">SAVED</text></g></g><g class="related-pair"><g class="relationship" transform="translate(-233.99942016601562,115.72407531738281) rotate(-46.60061264068758)"><path class="relationship" d="M 103.01800197923811 4 L 264.97332030832507 4 L 264.97332030832507 16 L 296.97332030832507 0 L 264.97332030832507 -16 L 264.97332030832507 -4 L 103.01800197923811 -4 Z" fill="rgb(0, 0, 0)" stroke="rgb(51, 51, 51)" stroke-width="0px"/><text class="type" text-anchor="middle" baseline-shift="30%" alignment-baseline="alphabetic" x="183.9956611437816" y="0" font-size="50px" font-family="&quot;Gill Sans&quot;, &quot;Gill Sans MT&quot;, Calibri, sans-serif">OF</text></g></g><g class="related-pair"><g class="relationship" transform="translate(368.13714599609375,115.72407531738281) rotate(-135.20847203548848)"><path class="relationship" d="M 103.01800197923811 4 L 278.2559996830436 4 L 278.2559996830436 16 L 310.2559996830436 0 L 278.2559996830436 -16 L 278.2559996830436 -4 L 103.01800197923811 -4 Z" fill="rgb(0, 0, 0)" stroke="rgb(51, 51, 51)" stroke-width="0px"/><text class="type" text-anchor="middle" baseline-shift="30%" alignment-baseline="alphabetic" transform="rotate(180)" x="-190.63700083114088" y="0" font-size="50px" font-family="&quot;Gill Sans&quot;, &quot;Gill Sans MT&quot;, Calibri, sans-serif">OF</text></g></g><g class="related-pair"><g class="relationship" transform="translate(57.56156039237976,-192.5996208190918) rotate(-16.39045619362601)"><path class="relationship" d="M 127.37477616841198 4 L 517.6172060369996 4 L 517.6172060369996 16 L 549.6172060369996 0 L 517.6172060369996 -16 L 517.6172060369996 -4 L 127.37477616841198 -4 Z" fill="rgb(0, 0, 0)" stroke="rgb(51, 51, 51)" stroke-width="0px"/><text class="type" text-anchor="middle" baseline-shift="30%" alignment-baseline="alphabetic" x="322.49599110270583" y="0" font-size="50px" font-family="&quot;Gill Sans&quot;, &quot;Gill Sans MT&quot;, Calibri, sans-serif">IN_CITY</text></g></g></g><g class="layer nodes"><circle class="node node-id-0" r="74.18226787956077" fill="rgb(255, 255, 255)" stroke="rgb(0, 0, 0)" stroke-width="8px" cx="-693.8014526367188" cy="-284.10595703125"/><circle class="node node-id-1" r="88.01800197923811" fill="rgb(255, 255, 255)" stroke="rgb(0, 0, 0)" stroke-width="8px" cx="-233.99942016601562" cy="115.72407531738281"/><circle class="node node-id-2" r="68.26983437792327" fill="rgb(255, 255, 255)" stroke="rgb(0, 0, 0)" stroke-width="8px" cx="664.7286987304688" cy="-371.18873596191406"/><circle class="node node-id-3" r="112.37477616841198" fill="rgb(255, 255, 255)" stroke="rgb(0, 0, 0)" stroke-width="8px" cx="57.56156039237976" cy="-192.5996208190918"/><circle class="node node-id-4" r="88.01800197923811" fill="rgb(255, 255, 255)" stroke="rgb(0, 0, 0)" stroke-width="8px" cx="368.13714599609375" cy="115.72407531738281"/><g class="caption"><text class="caption node" text-anchor="middle" alignment-baseline="central" x="-693.8014526367188" y="-284.10595703125" fill="rgb(51, 51, 51)" font-size="50px" font-family="&quot;Gill Sans&quot;, &quot;Gill Sans MT&quot;, Calibri, sans-serif">User</text></g><g class="caption"><text class="caption node" text-anchor="middle" alignment-baseline="central" x="-233.99942016601562" y="115.72407531738281" fill="rgb(51, 51, 51)" font-size="50px" font-family="&quot;Gill Sans&quot;, &quot;Gill Sans MT&quot;, Calibri, sans-serif">Listing</text></g><g class="caption"><text class="caption node" text-anchor="middle" alignment-baseline="central" x="664.7286987304688" y="-371.18873596191406" fill="rgb(51, 51, 51)" font-size="50px" font-family="&quot;Gill Sans&quot;, &quot;Gill Sans MT&quot;, Calibri, sans-serif">City</text></g><g class="caption"><text class="caption node" text-anchor="middle" alignment-baseline="central" x="57.56156039237976" y="-192.5996208190918" fill="rgb(51, 51, 51)" font-size="50px" font-family="&quot;Gill Sans&quot;, &quot;Gill Sans MT&quot;, Calibri, sans-serif">Property</text></g><g class="caption"><text class="caption node" text-anchor="middle" alignment-baseline="central" x="368.13714599609375" y="115.72407531738281" fill="rgb(51, 51, 51)" font-size="50px" font-family="&quot;Gill Sans&quot;, &quot;Gill Sans MT&quot;, Calibri, sans-serif">Listing</text></g></g><g class="layer properties"><g class="speech-bubble node-speech-bubble" transform="translate(-746.2562372981532,-336.5607416926844) "><path class="speech-bubble-outline" transform="scale(-1,-1) " d="M 0 0 L 30 20 L 280.341796875 20 A 10 10 0 0 1 290.341796875 30 L 290.341796875 130 A 10 10 0 0 1 280.341796875 140 L 30 140 A 10 10 0 0 1 20 130 L 20 30 Z" fill="rgb(255, 255, 255)" stroke="rgb(0, 0, 0)" stroke-width="3px"/><text class="speech-bubble-content property-key" x="-146.650390625" y="-105" alignment-baseline="central" text-anchor="end" font-size="50px" font-family="&quot;Gill Sans&quot;, &quot;Gill Sans MT&quot;, Calibri, sans-serif" xml:space="preserve">id: </text><text class="speech-bubble-content property-key" x="-146.650390625" y="-55" alignment-baseline="central" text-anchor="end" font-size="50px" font-family="&quot;Gill Sans&quot;, &quot;Gill Sans MT&quot;, Calibri, sans-serif" xml:space="preserve">name: </text><text class="speech-bubble-content property-value" x="-146.650390625" y="-105" alignment-baseline="central" font-size="50px" font-family="&quot;Gill Sans&quot;, &quot;Gill Sans MT&quot;, Calibri, sans-serif">String</text><text class="speech-bubble-content property-value" x="-146.650390625" y="-55" alignment-baseline="central" font-size="50px" font-family="&quot;Gill Sans&quot;, &quot;Gill Sans MT&quot;, Calibri, sans-serif">String</text></g><g class="speech-bubble node-speech-bubble" transform="translate(-233.99942016601562,203.74207729662092) "><path class="speech-bubble-outline" transform="scale(1,1) " d="M 0 0 L -10 20 L -261.21826171875 20 A 10 10 0 0 0 -271.21826171875 30 L -271.21826171875 330 A 10 10 0 0 0 -261.21826171875 340 L 261.21826171875 340 A 10 10 0 0 0 271.21826171875 330 L 271.21826171875 30 A 10 10 0 0 0 261.21826171875 20 L 10 20 Z" fill="rgb(255, 255, 255)" stroke="rgb(0, 0, 0)" stroke-width="3px"/><text class="speech-bubble-content property-key" x="58.11767578125" y="55" alignment-baseline="central" text-anchor="end" font-size="50px" font-family="&quot;Gill Sans&quot;, &quot;Gill Sans MT&quot;, Calibri, sans-serif" xml:space="preserve">createdAt: </text><text class="speech-bubble-content property-key" x="58.11767578125" y="105" alignment-baseline="central" text-anchor="end" font-size="50px" font-family="&quot;Gill Sans&quot;, &quot;Gill Sans MT&quot;, Calibri, sans-serif" xml:space="preserve">listingId: </text><text class="speech-bubble-content property-key" x="58.11767578125" y="155" alignment-baseline="central" text-anchor="end" font-size="50px" font-family="&quot;Gill Sans&quot;, &quot;Gill Sans MT&quot;, Calibri, sans-serif" xml:space="preserve">askingPrice: </text><text class="speech-bubble-content property-key" x="58.11767578125" y="205" alignment-baseline="central" text-anchor="end" font-size="50px" font-family="&quot;Gill Sans&quot;, &quot;Gill Sans MT&quot;, Calibri, sans-serif" xml:space="preserve">bedRooms: </text><text class="speech-bubble-content property-key" x="58.11767578125" y="255" alignment-baseline="central" text-anchor="end" font-size="50px" font-family="&quot;Gill Sans&quot;, &quot;Gill Sans MT&quot;, Calibri, sans-serif" xml:space="preserve">bathRooms: </text><text class="speech-bubble-content property-key" x="58.11767578125" y="305" alignment-baseline="central" text-anchor="end" font-size="50px" font-family="&quot;Gill Sans&quot;, &quot;Gill Sans MT&quot;, Calibri, sans-serif" xml:space="preserve">squareFootage: </text><text class="speech-bubble-content property-value" x="58.11767578125" y="55" alignment-baseline="central" font-size="50px" font-family="&quot;Gill Sans&quot;, &quot;Gill Sans MT&quot;, Calibri, sans-serif">DateTime</text><text class="speech-bubble-content property-value" x="58.11767578125" y="105" alignment-baseline="central" font-size="50px" font-family="&quot;Gill Sans&quot;, &quot;Gill Sans MT&quot;, Calibri, sans-serif">String</text><text class="speech-bubble-content property-value" x="58.11767578125" y="155" alignment-baseline="central" font-size="50px" font-family="&quot;Gill Sans&quot;, &quot;Gill Sans MT&quot;, Calibri, sans-serif">Int</text><text class="speech-bubble-content property-value" x="58.11767578125" y="205" alignment-baseline="central" font-size="50px" font-family="&quot;Gill Sans&quot;, &quot;Gill Sans MT&quot;, Calibri, sans-serif">Int</text><text class="speech-bubble-content property-value" x="58.11767578125" y="255" alignment-baseline="central" font-size="50px" font-family="&quot;Gill Sans&quot;, &quot;Gill Sans MT&quot;, Calibri, sans-serif">Int</text><text class="speech-bubble-content property-value" x="58.11767578125" y="305" alignment-baseline="central" font-size="50px" font-family="&quot;Gill Sans&quot;, &quot;Gill Sans MT&quot;, Calibri, sans-serif">Int</text></g><g class="speech-bubble node-speech-bubble" transform="translate(732.998533108392,-371.18873596191406) "><path class="speech-bubble-outline" transform="scale(1,1) " d="M 0 0 L 20 -10 L 20 -25 A 10 10 0 0 1 30 -35 L 280.341796875 -35 A 10 10 0 0 1 290.341796875 -25 L 290.341796875 25 A 10 10 0 0 1 280.341796875 35 L 30 35 A 10 10 0 0 1 20 25 L 20 10 Z" fill="rgb(255, 255, 255)" stroke="rgb(0, 0, 0)" stroke-width="3px"/><text class="speech-bubble-content property-key" x="163.69140625" y="0" alignment-baseline="central" text-anchor="end" font-size="50px" font-family="&quot;Gill Sans&quot;, &quot;Gill Sans MT&quot;, Calibri, sans-serif" xml:space="preserve">name: </text><text class="speech-bubble-content property-value" x="163.69140625" y="0" alignment-baseline="central" font-size="50px" font-family="&quot;Gill Sans&quot;, &quot;Gill Sans MT&quot;, Calibri, sans-serif">String</text></g><g class="speech-bubble node-speech-bubble" transform="translate(-21.89940587062479,-272.06058708209633) "><path class="speech-bubble-outline" transform="scale(-1,-1) " d="M 0 0 L 30 20 L 354.5849609375 20 A 10 10 0 0 1 364.5849609375 30 L 364.5849609375 180 A 10 10 0 0 1 354.5849609375 190 L 30 190 A 10 10 0 0 1 20 180 L 20 30 Z" fill="rgb(255, 255, 255)" stroke="rgb(0, 0, 0)" stroke-width="3px"/><text class="speech-bubble-content property-key" x="-167.744140625" y="-155" alignment-baseline="central" text-anchor="end" font-size="50px" font-family="&quot;Gill Sans&quot;, &quot;Gill Sans MT&quot;, Calibri, sans-serif" xml:space="preserve">address: </text><text class="speech-bubble-content property-key" x="-167.744140625" y="-105" alignment-baseline="central" text-anchor="end" font-size="50px" font-family="&quot;Gill Sans&quot;, &quot;Gill Sans MT&quot;, Calibri, sans-serif" xml:space="preserve">location: </text><text class="speech-bubble-content property-key" x="-167.744140625" y="-55" alignment-baseline="central" text-anchor="end" font-size="50px" font-family="&quot;Gill Sans&quot;, &quot;Gill Sans MT&quot;, Calibri, sans-serif" xml:space="preserve">bounds: </text><text class="speech-bubble-content property-value" x="-167.744140625" y="-155" alignment-baseline="central" font-size="50px" font-family="&quot;Gill Sans&quot;, &quot;Gill Sans MT&quot;, Calibri, sans-serif">String</text><text class="speech-bubble-content property-value" x="-167.744140625" y="-105" alignment-baseline="central" font-size="50px" font-family="&quot;Gill Sans&quot;, &quot;Gill Sans MT&quot;, Calibri, sans-serif">Point</text><text class="speech-bubble-content property-value" x="-167.744140625" y="-55" alignment-baseline="central" font-size="50px" font-family="&quot;Gill Sans&quot;, &quot;Gill Sans MT&quot;, Calibri, sans-serif">[Point]</text></g><g class="speech-bubble node-speech-bubble" transform="translate(430.375272062104,177.96220138339305) "><path class="speech-bubble-outline" transform="scale(1,1) " d="M 0 0 L 30 20 L 481.8798828125 20 A 10 10 0 0 1 491.8798828125 30 L 491.8798828125 180 A 10 10 0 0 1 481.8798828125 190 L 30 190 A 10 10 0 0 1 20 180 L 20 30 Z" fill="rgb(255, 255, 255)" stroke="rgb(0, 0, 0)" stroke-width="3px"/><text class="speech-bubble-content property-key" x="278.779296875" y="55" alignment-baseline="central" text-anchor="end" font-size="50px" font-family="&quot;Gill Sans&quot;, &quot;Gill Sans MT&quot;, Calibri, sans-serif" xml:space="preserve">createdAt: </text><text class="speech-bubble-content property-key" x="278.779296875" y="105" alignment-baseline="central" text-anchor="end" font-size="50px" font-family="&quot;Gill Sans&quot;, &quot;Gill Sans MT&quot;, Calibri, sans-serif" xml:space="preserve">active: </text><text class="speech-bubble-content property-key" x="278.779296875" y="155" alignment-baseline="central" text-anchor="end" font-size="50px" font-family="&quot;Gill Sans&quot;, &quot;Gill Sans MT&quot;, Calibri, sans-serif" xml:space="preserve">askingPrice: </text><text class="speech-bubble-content property-value" x="278.779296875" y="55" alignment-baseline="central" font-size="50px" font-family="&quot;Gill Sans&quot;, &quot;Gill Sans MT&quot;, Calibri, sans-serif">DateTime</text><text class="speech-bubble-content property-value" x="278.779296875" y="105" alignment-baseline="central" font-size="50px" font-family="&quot;Gill Sans&quot;, &quot;Gill Sans MT&quot;, Calibri, sans-serif">Bool</text><text class="speech-bubble-content property-value" x="278.779296875" y="155" alignment-baseline="central" font-size="50px" font-family="&quot;Gill Sans&quot;, &quot;Gill Sans MT&quot;, Calibri, sans-serif">Int</text></g><g class="speech-bubble relationship-speech-bubble" transform="translate(-481.19434487056105,-99.22920405363371) "><path class="speech-bubble-outline" transform="scale(-1,1) " d="M 0 0 L 30 20 L 460.029296875 20 A 10 10 0 0 1 470.029296875 30 L 470.029296875 80 A 10 10 0 0 1 460.029296875 90 L 30 90 A 10 10 0 0 1 20 80 L 20 30 Z" fill="rgb(255, 255, 255)" stroke="rgb(0, 0, 0)" stroke-width="3px"/><text class="speech-bubble-content property-key" x="-233.1005859375" y="55" alignment-baseline="central" text-anchor="end" font-size="50px" font-family="&quot;Gill Sans&quot;, &quot;Gill Sans MT&quot;, Calibri, sans-serif" xml:space="preserve">createdAt: </text><text class="speech-bubble-content property-value" x="-233.1005859375" y="55" alignment-baseline="central" font-size="50px" font-family="&quot;Gill Sans&quot;, &quot;Gill Sans MT&quot;, Calibri, sans-serif">DateTime</text></g></g><g class="layer overlay"><circle class="node overlay" r="78.18226787956077" stroke="none" fill="rgba(255, 255, 255, 0)" cx="-693.8014526367188" cy="-284.10595703125"/><circle class="node overlay" r="92.01800197923811" stroke="none" fill="rgba(255, 255, 255, 0)" cx="-233.99942016601562" cy="115.72407531738281"/><circle class="node overlay" r="72.26983437792327" stroke="none" fill="rgba(255, 255, 255, 0)" cx="664.7286987304688" cy="-371.18873596191406"/><circle class="node overlay" r="116.37477616841198" stroke="none" fill="rgba(255, 255, 255, 0)" cx="57.56156039237976" cy="-192.5996208190918"/><circle class="node overlay" r="92.01800197923811" stroke="none" fill="rgba(255, 255, 255, 0)" cx="368.13714599609375" cy="115.72407531738281"/><circle class="node ring" r="83.18226787956077" fill="none" stroke="rgba(255, 255, 255, 0)" stroke-width="10px" cx="-693.8014526367188" cy="-284.10595703125"/><circle class="node ring" r="97.01800197923811" fill="none" stroke="rgba(255, 255, 255, 0)" stroke-width="10px" cx="-233.99942016601562" cy="115.72407531738281"/><circle class="node ring" r="77.26983437792327" fill="none" stroke="rgba(255, 255, 255, 0)" stroke-width="10px" cx="664.7286987304688" cy="-371.18873596191406"/><circle class="node ring" r="121.37477616841198" fill="none" stroke="rgba(255, 255, 255, 0)" stroke-width="10px" cx="57.56156039237976" cy="-192.5996208190918"/><circle class="node ring" r="97.01800197923811" fill="none" stroke="rgba(255, 255, 255, 0)" stroke-width="10px" cx="368.13714599609375" cy="115.72407531738281"/><path class="relationship overlay" fill="rgba(255, 255, 255, 0)" stroke="rgba(255, 255, 255, 0)" stroke-width="10px" transform="translate(-693.8014526367188,-284.10595703125) rotate(41.00924144615828)" d="M 89.18226787956077 4 L 474.3111076422359 4 L 474.3111076422359 16 L 506.3111076422359 0 L 474.3111076422359 -16 L 474.3111076422359 -4 L 89.18226787956077 -4 Z"/><path class="relationship overlay" fill="rgba(255, 255, 255, 0)" stroke="rgba(255, 255, 255, 0)" stroke-width="10px" transform="translate(-233.99942016601562,115.72407531738281) rotate(-46.60061264068758)" d="M 103.01800197923811 4 L 264.97332030832507 4 L 264.97332030832507 16 L 296.97332030832507 0 L 264.97332030832507 -16 L 264.97332030832507 -4 L 103.01800197923811 -4 Z"/><path class="relationship overlay" fill="rgba(255, 255, 255, 0)" stroke="rgba(255, 255, 255, 0)" stroke-width="10px" transform="translate(368.13714599609375,115.72407531738281) rotate(-135.20847203548848)" d="M 103.01800197923811 4 L 278.2559996830436 4 L 278.2559996830436 16 L 310.2559996830436 0 L 278.2559996830436 -16 L 278.2559996830436 -4 L 103.01800197923811 -4 Z"/><path class="relationship overlay" fill="rgba(255, 255, 255, 0)" stroke="rgba(255, 255, 255, 0)" stroke-width="10px" transform="translate(57.56156039237976,-192.5996208190918) rotate(-16.39045619362601)" d="M 127.37477616841198 4 L 517.6172060369996 4 L 517.6172060369996 16 L 549.6172060369996 0 L 517.6172060369996 -16 L 517.6172060369996 -4 L 127.37477616841198 -4 Z"/></g></svg>