<svg xmlns="http://www.w3.org/2000/svg" class="graphdiagram" viewBox="-1038.0980341731533 -637.496112434094 2045.6532689417018 1166.3064818063453"><g class="layer relationships"><g class="related-pair"><g class="relationship" transform="translate(-693.8014526367188,-284.10595703125) rotate(41.49525034266484)"><path class="relationship" d="M 89.18226787956077 4 L 416.9877569224508 4 L 416.9877569224508 16 L 448.9877569224508 0 L 416.9877569224508 -16 L 416.9877569224508 -4 L 89.18226787956077 -4 Z" fill="rgb(0, 0, 0)" stroke="rgb(51, 51, 51)" stroke-width="0px"/><text class="type" text-anchor="middle" baseline-shift="30%" alignment-baseline="alphabetic" x="253.08501240100577" y="0" font-size="50px" font-family="&quot;Gill Sans&quot;, &quot;Gill Sans MT&quot;, Calibri, sans-serif">SAVED</text></g></g><g class="related-pair"><g class="relationship" transform="translate(-280.34326171875,81.62985229492188) rotate(-39.69476593930049)"><path class="relationship" d="M 103.01800197923811 4 L 358.0884491831867 4 L 358.0884491831867 16 L 390.0884491831867 0 L 358.0884491831867 -16 L 358.0884491831867 -4 L 103.01800197923811 -4 Z" fill="rgb(0, 0, 0)" stroke="rgb(51, 51, 51)" stroke-width="0px"/><text class="type" text-anchor="middle" baseline-shift="30%" alignment-baseline="alphabetic" x="230.55322558121242" y="0" font-size="50px" font-family="&quot;Gill Sans&quot;, &quot;Gill Sans MT&quot;, Calibri, sans-serif">OF</text></g></g><g class="related-pair"><g class="relationship" transform="translate(480.4899597167969,115.72407531738281) rotate(-134.84797707487414)"><path class="relationship" d="M 103.01800197923811 4 L 354.8801696367977 4 L 354.8801696367977 16 L 386.8801696367977 0 L 354.8801696367977 -16 L 354.8801696367977 -4 L 103.01800197923811 -4 Z" fill="rgb(0, 0, 0)" stroke="rgb(51, 51, 51)" stroke-width="0px"/><text class="type" text-anchor="middle" baseline-shift="30%" alignment-baseline="alphabetic" transform="rotate(180)" x="-228.9490858080179" y="0" font-size="50px" font-family="&quot;Gill Sans&quot;, &quot;Gill Sans MT&quot;, Calibri, sans-serif">OF</text></g></g><g class="related-pair"><g class="relationship" transform="translate(647.443603515625,-415.84178161621094) rotate(162.50193000259011)"><path class="relationship" d="M 83.26983437792327 4 L 395.9420515876147 4 L 395.9420515876147 16 L 427.9420515876147 0 L 395.9420515876147 -16 L 395.9420515876147 -4 L 83.26983437792327 -4 Z" fill="rgb(0, 0, 0)" stroke="rgb(51, 51, 51)" stroke-width="0px"/></g></g></g><g class="layer nodes"><circle class="node node-id-0" r="74.18226787956077" fill="rgb(255, 255, 255)" stroke="rgb(0, 0, 0)" stroke-width="8px" cx="-693.8014526367188" cy="-284.10595703125"/><circle class="node node-id-1" r="88.01800197923811" fill="rgb(255, 255, 255)" stroke="rgb(0, 0, 0)" stroke-width="8px" cx="-280.34326171875" cy="81.62985229492188"/><circle class="node node-id-2" r="68.26983437792327" fill="rgb(255, 255, 255)" stroke="rgb(0, 0, 0)" stroke-width="8px" cx="647.443603515625" cy="-415.84178161621094"/><circle class="node node-id-3" r="112.37477616841198" fill="rgb(255, 255, 255)" stroke="rgb(0, 0, 0)" stroke-width="8px" cx="117.82290720939636" cy="-248.87263107299805"/><circle class="node node-id-4" r="88.01800197923811" fill="rgb(255, 255, 255)" stroke="rgb(0, 0, 0)" stroke-width="8px" cx="480.4899597167969" cy="115.72407531738281"/><g class="caption"><text class="caption node" text-anchor="middle" alignment-baseline="central" x="-693.8014526367188" y="-284.10595703125" fill="rgb(51, 51, 51)" font-size="50px" font-family="&quot;Gill Sans&quot;, &quot;Gill Sans MT&quot;, Calibri, sans-serif">User</text></g><g class="caption"><text class="caption node" text-anchor="middle" alignment-baseline="central" x="-280.34326171875" y="81.62985229492188" fill="rgb(51, 51, 51)" font-size="50px" font-family="&quot;Gill Sans&quot;, &quot;Gill Sans MT&quot;, Calibri, sans-serif">Listing</text></g><g class="caption"><text class="caption node" text-anchor="middle" alignment-baseline="central" x="647.443603515625" y="-415.84178161621094" fill="rgb(51, 51, 51)" font-size="50px" font-family="&quot;Gill Sans&quot;, &quot;Gill Sans MT&quot;, Calibri, sans-serif">City</text></g><g class="caption"><text class="caption node" text-anchor="middle" alignment-baseline="central" x="117.82290720939636" y="-248.87263107299805" fill="rgb(51, 51, 51)" font-size="50px" font-family="&quot;Gill Sans&quot;, &quot;Gill Sans MT&quot;, Calibri, sans-serif">Property</text></g><g class="caption"><text class="caption node" text-anchor="middle" alignment-baseline="central" x="480.4899597167969" y="115.72407531738281" fill="rgb(51, 51, 51)" font-size="50px" font-family="&quot;Gill Sans&quot;, &quot;Gill Sans MT&quot;, Calibri, sans-serif">Listing</text></g></g><g class="layer properties"><g class="speech-bubble node-speech-bubble" transform="translate(-746.2562372981532,-336.5607416926844) "><path class="speech-bubble-outline" transform="scale(-1,-1) " d="M 0 0 L 30 20 L 280.341796875 20 A 10 10 0 0 1 290.341796875 30 L 290.341796875 130 A 10 10 0 0 1 280.341796875 140 L 30 140 A 10 10 0 0 1 20 130 L 20 30 Z" fill="rgb(255, 255, 255)" stroke="rgb(0, 0, 0)" stroke-width="3px"/><text class="speech-bubble-content property-key" x="-146.650390625" y="-105" alignment-baseline="central" text-anchor="end" font-size="50px" font-family="&quot;Gill Sans&quot;, &quot;Gill Sans MT&quot;, Calibri, sans-serif" xml:space="preserve">id: </text><text class="speech-bubble-content property-key" x="-146.650390625" y="-55" alignment-baseline="central" text-anchor="end" font-size="50px" font-family="&quot;Gill Sans&quot;, &quot;Gill Sans MT&quot;, Calibri, sans-serif" xml:space="preserve">name: </text><text class="speech-bubble-content property-value" x="-146.650390625" y="-105" alignment-baseline="central" font-size="50px" font-family="&quot;Gill Sans&quot;, &quot;Gill Sans MT&quot;, Calibri, sans-serif">String</text><text class="speech-bubble-content property-value" x="-146.650390625" y="-55" alignment-baseline="central" font-size="50px" font-family="&quot;Gill Sans&quot;, &quot;Gill Sans MT&quot;, Calibri, sans-serif">String</text></g><g class="speech-bubble node-speech-bubble" transform="translate(-280.34326171875,169.64785427415998) "><path class="speech-bubble-outline" transform="scale(1,1) " d="M 0 0 L -10 20 L -225.93994140625 20 A 10 10 0 0 0 -235.93994140625 30 L -235.93994140625 230 A 10 10 0 0 0 -225.93994140625 240 L 225.93994140625 240 A 10 10 0 0 0 235.93994140625 230 L 235.93994140625 30 A 10 10 0 0 0 225.93994140625 20 L 10 20 Z" fill="rgb(255, 255, 255)" stroke="rgb(0, 0, 0)" stroke-width="3px"/><text class="speech-bubble-content property-key" x="22.83935546875" y="55" alignment-baseline="central" text-anchor="end" font-size="50px" font-family="&quot;Gill Sans&quot;, &quot;Gill Sans MT&quot;, Calibri, sans-serif" xml:space="preserve">createdAt: </text><text class="speech-bubble-content property-key" x="22.83935546875" y="105" alignment-baseline="central" text-anchor="end" font-size="50px" font-family="&quot;Gill Sans&quot;, &quot;Gill Sans MT&quot;, Calibri, sans-serif" xml:space="preserve">listingId: </text><text class="speech-bubble-content property-key" x="22.83935546875" y="155" alignment-baseline="central" text-anchor="end" font-size="50px" font-family="&quot;Gill Sans&quot;, &quot;Gill Sans MT&quot;, Calibri, sans-serif" xml:space="preserve">askingPrice: </text><text class="speech-bubble-content property-key" x="22.83935546875" y="205" alignment-baseline="central" text-anchor="end" font-size="50px" font-family="&quot;Gill Sans&quot;, &quot;Gill Sans MT&quot;, Calibri, sans-serif" xml:space="preserve">bedRooms: </text><text class="speech-bubble-content property-value" x="22.83935546875" y="55" alignment-baseline="central" font-size="50px" font-family="&quot;Gill Sans&quot;, &quot;Gill Sans MT&quot;, Calibri, sans-serif">DateTime</text><text class="speech-bubble-content property-value" x="22.83935546875" y="105" alignment-baseline="central" font-size="50px" font-family="&quot;Gill Sans&quot;, &quot;Gill Sans MT&quot;, Calibri, sans-serif">String</text><text class="speech-bubble-content property-value" x="22.83935546875" y="155" alignment-baseline="central" font-size="50px" font-family="&quot;Gill Sans&quot;, &quot;Gill Sans MT&quot;, Calibri, sans-serif">Int</text><text class="speech-bubble-content property-value" x="22.83935546875" y="205" alignment-baseline="central" font-size="50px" font-family="&quot;Gill Sans&quot;, &quot;Gill Sans MT&quot;, Calibri, sans-serif">Int</text></g><g class="speech-bubble node-speech-bubble" transform="translate(715.7134378935483,-415.84178161621094) "><path class="speech-bubble-outline" transform="scale(1,1) " d="M 0 0 L 20 -10 L 20 -25 A 10 10 0 0 1 30 -35 L 280.341796875 -35 A 10 10 0 0 1 290.341796875 -25 L 290.341796875 25 A 10 10 0 0 1 280.341796875 35 L 30 35 A 10 10 0 0 1 20 25 L 20 10 Z" fill="rgb(255, 255, 255)" stroke="rgb(0, 0, 0)" stroke-width="3px"/><text class="speech-bubble-content property-key" x="163.69140625" y="0" alignment-baseline="central" text-anchor="end" font-size="50px" font-family="&quot;Gill Sans&quot;, &quot;Gill Sans MT&quot;, Calibri, sans-serif" xml:space="preserve">name: </text><text class="speech-bubble-content property-value" x="163.69140625" y="0" alignment-baseline="central" font-size="50px" font-family="&quot;Gill Sans&quot;, &quot;Gill Sans MT&quot;, Calibri, sans-serif">String</text></g><g class="speech-bubble node-speech-bubble" transform="translate(38.36194094639181,-328.3335973360026) "><path class="speech-bubble-outline" transform="scale(-1,-1) " d="M 0 0 L 30 20 L 354.5849609375 20 A 10 10 0 0 1 364.5849609375 30 L 364.5849609375 180 A 10 10 0 0 1 354.5849609375 190 L 30 190 A 10 10 0 0 1 20 180 L 20 30 Z" fill="rgb(255, 255, 255)" stroke="rgb(0, 0, 0)" stroke-width="3px"/><text class="speech-bubble-content property-key" x="-167.744140625" y="-155" alignment-baseline="central" text-anchor="end" font-size="50px" font-family="&quot;Gill Sans&quot;, &quot;Gill Sans MT&quot;, Calibri, sans-serif" xml:space="preserve">address: </text><text class="speech-bubble-content property-key" x="-167.744140625" y="-105" alignment-baseline="central" text-anchor="end" font-size="50px" font-family="&quot;Gill Sans&quot;, &quot;Gill Sans MT&quot;, Calibri, sans-serif" xml:space="preserve">location: </text><text class="speech-bubble-content property-key" x="-167.744140625" y="-55" alignment-baseline="central" text-anchor="end" font-size="50px" font-family="&quot;Gill Sans&quot;, &quot;Gill Sans MT&quot;, Calibri, sans-serif" xml:space="preserve">bounds: </text><text class="speech-bubble-content property-value" x="-167.744140625" y="-155" alignment-baseline="central" font-size="50px" font-family="&quot;Gill Sans&quot;, &quot;Gill Sans MT&quot;, Calibri, sans-serif">String</text><text class="speech-bubble-content property-value" x="-167.744140625" y="-105" alignment-baseline="central" font-size="50px" font-family="&quot;Gill Sans&quot;, &quot;Gill Sans MT&quot;, Calibri, sans-serif">Point</text><text class="speech-bubble-content property-value" x="-167.744140625" y="-55" alignment-baseline="central" font-size="50px" font-family="&quot;Gill Sans&quot;, &quot;Gill Sans MT&quot;, Calibri, sans-serif">[Point]</text></g><g class="speech-bubble node-speech-bubble" transform="translate(542.728085782807,177.96220138339305) "><path class="speech-bubble-outline" transform="scale(1,1) " d="M 0 0 L 30 20 L 434.541015625 20 A 10 10 0 0 1 444.541015625 30 L 444.541015625 130 A 10 10 0 0 1 434.541015625 140 L 30 140 A 10 10 0 0 1 20 130 L 20 30 Z" fill="rgb(255, 255, 255)" stroke="rgb(0, 0, 0)" stroke-width="3px"/><text class="speech-bubble-content property-key" x="231.4404296875" y="55" alignment-baseline="central" text-anchor="end" font-size="50px" font-family="&quot;Gill Sans&quot;, &quot;Gill Sans MT&quot;, Calibri, sans-serif" xml:space="preserve">createAt: </text><text class="speech-bubble-content property-key" x="231.4404296875" y="105" alignment-baseline="central" text-anchor="end" font-size="50px" font-family="&quot;Gill Sans&quot;, &quot;Gill Sans MT&quot;, Calibri, sans-serif" xml:space="preserve">active: </text><text class="speech-bubble-content property-value" x="231.4404296875" y="55" alignment-baseline="central" font-size="50px" font-family="&quot;Gill Sans&quot;, &quot;Gill Sans MT&quot;, Calibri, sans-serif">DateTime</text><text class="speech-bubble-content property-value" x="231.4404296875" y="105" alignment-baseline="central" font-size="50px" font-family="&quot;Gill Sans&quot;, &quot;Gill Sans MT&quot;, Calibri, sans-serif">Bool</text></g><g class="speech-bubble relationship-speech-bubble" transform="translate(-504.23808361685366,-116.42246759995362) "><path class="speech-bubble-outline" transform="scale(-1,1) " d="M 0 0 L 30 20 L 460.029296875 20 A 10 10 0 0 1 470.029296875 30 L 470.029296875 80 A 10 10 0 0 1 460.029296875 90 L 30 90 A 10 10 0 0 1 20 80 L 20 30 Z" fill="rgb(255, 255, 255)" stroke="rgb(0, 0, 0)" stroke-width="3px"/><text class="speech-bubble-content property-key" x="-233.1005859375" y="55" alignment-baseline="central" text-anchor="end" font-size="50px" font-family="&quot;Gill Sans&quot;, &quot;Gill Sans MT&quot;, Calibri, sans-serif" xml:space="preserve">createdAt: </text><text class="speech-bubble-content property-value" x="-233.1005859375" y="55" alignment-baseline="central" font-size="50px" font-family="&quot;Gill Sans&quot;, &quot;Gill Sans MT&quot;, Calibri, sans-serif">DateTime</text></g></g><g class="layer overlay"><circle class="node overlay" r="78.18226787956077" stroke="none" fill="rgba(255, 255, 255, 0)" cx="-693.8014526367188" cy="-284.10595703125"/><circle class="node overlay" r="92.01800197923811" stroke="none" fill="rgba(255, 255, 255, 0)" cx="-280.34326171875" cy="81.62985229492188"/><circle class="node overlay" r="72.26983437792327" stroke="none" fill="rgba(255, 255, 255, 0)" cx="647.443603515625" cy="-415.84178161621094"/><circle class="node overlay" r="116.37477616841198" stroke="none" fill="rgba(255, 255, 255, 0)" cx="117.82290720939636" cy="-248.87263107299805"/><circle class="node overlay" r="92.01800197923811" stroke="none" fill="rgba(255, 255, 255, 0)" cx="480.4899597167969" cy="115.72407531738281"/><circle class="node ring" r="83.18226787956077" fill="none" stroke="rgba(255, 255, 255, 0)" stroke-width="10px" cx="-693.8014526367188" cy="-284.10595703125"/><circle class="node ring" r="97.01800197923811" fill="none" stroke="rgba(255, 255, 255, 0)" stroke-width="10px" cx="-280.34326171875" cy="81.62985229492188"/><circle class="node ring" r="77.26983437792327" fill="none" stroke="rgba(255, 255, 255, 0)" stroke-width="10px" cx="647.443603515625" cy="-415.84178161621094"/><circle class="node ring" r="121.37477616841198" fill="none" stroke="rgba(255, 255, 255, 0)" stroke-width="10px" cx="117.82290720939636" cy="-248.87263107299805"/><circle class="node ring" r="97.01800197923811" fill="none" stroke="rgba(255, 255, 255, 0)" stroke-width="10px" cx="480.4899597167969" cy="115.72407531738281"/><path class="relationship overlay" fill="rgba(255, 255, 255, 0)" stroke="rgba(255, 255, 255, 0)" stroke-width="10px" transform="translate(-693.8014526367188,-284.10595703125) rotate(41.49525034266484)" d="M 89.18226787956077 4 L 416.9877569224508 4 L 416.9877569224508 16 L 448.9877569224508 0 L 416.9877569224508 -16 L 416.9877569224508 -4 L 89.18226787956077 -4 Z"/><path class="relationship overlay" fill="rgba(255, 255, 255, 0)" stroke="rgba(255, 255, 255, 0)" stroke-width="10px" transform="translate(-280.34326171875,81.62985229492188) rotate(-39.69476593930049)" d="M 103.01800197923811 4 L 358.0884491831867 4 L 358.0884491831867 16 L 390.0884491831867 0 L 358.0884491831867 -16 L 358.0884491831867 -4 L 103.01800197923811 -4 Z"/><path class="relationship overlay" fill="rgba(255, 255, 255, 0)" stroke="rgba(255, 255, 255, 0)" stroke-width="10px" transform="translate(480.4899597167969,115.72407531738281) rotate(-134.84797707487414)" d="M 103.01800197923811 4 L 354.8801696367977 4 L 354.8801696367977 16 L 386.8801696367977 0 L 354.8801696367977 -16 L 354.8801696367977 -4 L 103.01800197923811 -4 Z"/><path class="relationship overlay" fill="rgba(255, 255, 255, 0)" stroke="rgba(255, 255, 255, 0)" stroke-width="10px" transform="translate(647.443603515625,-415.84178161621094) rotate(162.50193000259011)" d="M 83.26983437792327 4 L 395.9420515876147 4 L 395.9420515876147 16 L 427.9420515876147 0 L 395.9420515876147 -16 L 395.9420515876147 -4 L 83.26983437792327 -4 Z"/></g></svg>